# xmcd
# 
# Track frame offsets:
#     150
#     9607
#     18045
#     31142
#     43175
#     50770
#     63262
#     72620
#     80850
#     86205
#     93935
#     103272
#     115315
#     127537
#     138037
#     144875
#     153492
#     164102
#     172842
#     180160
#     189850
#     197412
#     203880
#     214982
#     226552
# 
# Disc length: 3083
# 
# Revision: 2
# Processed by: cddbd v1.5.2PL0 Copyright (c) Steve Scherf et al.
# Submitted via: fre:ac v1.0.31
# 
DISCID=4a0c0919
DTITLE=Folk - Rural Rhythm Presents:  Classic Train Songs - Songs Of Rural America
DYEAR=2003
DGENRE=Folk
TTITLE0=Don Reno and Red Smiley with the Tennessee Cut-Ups - Kansas City Railroad Blues
TTITLE1=Mac Wiseman - Bring in the Georgia Mail
TTITLE2=Hylo Brown - Little John Henry
TTITLE3=Earl Taylor and Jim McCall with the Stoney Mountain Boys - Ghost Train
TTITLE4=Jack Casey - New River Train
TTITLE5=Jim Greer and the Mac-O-Chee Valley Folks - East Bound Train
TTITLE6=Log Cabin Boys - Train 45
TTITLE7="Big" John DeMarcus - Waiting for a Train
TTITLE8=Erinie and Mack with the Bluegrass Cut-Ups - Nine Pound Hammer
TTITLE9=Hylo Brown and The Timberliners - Fright Train Blues
TTITLE10=Earl Taylor and Jim McCall with the Stoney Mountain Boys - Wreck of the Old '97
TTITLE11=Jim Greer and the Mac-O-Chee Valley Folks - Lightning Express
TTITLE12=Curly Fox - Long Lost John
TTITLE13=Patsy Montana - Wabash Cannonball
TTITLE14=Red Smiley and The Bluegrass Cut-Ups - 900 Miles
TTITLE15=The Maggie Valley Country Singers - K.C. Whistle
TTITLE16=James Wall - Engine No. 9
TTITLE17=J.E. Mainer and the Mountaineers with Morris Herbert - He's Coming to Us Dead
TTITLE18=Hylo Brown and The Bluegrass Cut-Ups - Fireball Mail
TTITLE19=Roy Ross and His Blue Ridge Mountain Boys - Blue Railroad Train
TTITLE20=Lee Moore - Streamlined Cannonball
TTITLE21=Jim Greer and The Mac-O-Chee Valley Folks - Jesse James
TTITLE22=Red Smiley and The Bluegrass Cut-Ups - In the Pines
TTITLE23=Dick Unteed - Bye Bye Black Smoke Choo Choo
TTITLE24=Frosty Mountain Boys with Raymond  Fairchild - Casey Jones
EXTD=
EXTT0=
EXTT1=
EXTT2=
EXTT3=
EXTT4=
EXTT5=
EXTT6=
EXTT7=
EXTT8=
EXTT9=
EXTT10=
EXTT11=
EXTT12=
EXTT13=
EXTT14=
EXTT15=
EXTT16=
EXTT17=
EXTT18=
EXTT19=
EXTT20=
EXTT21=
EXTT22=
EXTT23=
EXTT24=
PLAYORDER=
